<?xml version="1.0" encoding="UTF-8"?>
<!DOCTYPE svg PUBLIC "-//W3C//DTD SVG 1.1//EN" "http://www.w3.org/Graphics/SVG/1.1/DTD/svg11.dtd">
<svg xmlns="http://www.w3.org/2000/svg" version="1.1" width="4167px" height="4167px" style="shape-rendering:geometricPrecision; text-rendering:geometricPrecision; image-rendering:optimizeQuality; fill-rule:evenodd; clip-rule:evenodd" xmlns:xlink="http://www.w3.org/1999/xlink">
<g><path style="opacity:1" fill="#0a3d79" d="M -0.5,-0.5 C 1388.5,-0.5 2777.5,-0.5 4166.5,-0.5C 4166.5,1388.5 4166.5,2777.5 4166.5,4166.5C 2777.5,4166.5 1388.5,4166.5 -0.5,4166.5C -0.5,2777.5 -0.5,1388.5 -0.5,-0.5 Z"/></g>
<g><path style="opacity:1" fill="#fe8d00" d="M 1719.5,1553.5 C 1777.12,1549.33 1825.62,1568 1865,1609.5C 1907.13,1661.51 1916.8,1719.17 1894,1782.5C 1876.43,1827.5 1847.6,1863.33 1807.5,1890C 1787.24,1901.12 1765.57,1907.45 1742.5,1909C 1688.17,1909.33 1633.83,1909.67 1579.5,1910C 1564.7,1913.99 1553.2,1922.49 1545,1935.5C 1543.15,1939 1541.82,1942.67 1541,1946.5C 1539.72,1980.8 1539.05,2015.14 1539,2049.5C 1530.05,2109.12 1498.22,2151.62 1443.5,2177C 1389.33,2197.94 1338.99,2191.27 1292.5,2157C 1242.67,2111.18 1229.5,2056.35 1253,1992.5C 1277.72,1943.88 1317.22,1916.04 1371.5,1909C 1412.17,1908.67 1452.83,1908.33 1493.5,1908C 1503.45,1906.69 1512.11,1902.69 1519.5,1896C 1528.92,1888.59 1535.09,1879.09 1538,1867.5C 1538.07,1820.15 1538.74,1772.82 1540,1725.5C 1551.93,1645.46 1595.76,1591.29 1671.5,1563C 1687.32,1558.2 1703.32,1555.03 1719.5,1553.5 Z"/></g>
<g><path style="opacity:1" fill="#fe8d00" d="M 2418.5,1553.5 C 2473.85,1547.91 2522.85,1562.41 2565.5,1597C 2615.59,1643.6 2634.76,1700.76 2623,1768.5C 2607.23,1831.28 2569.06,1874.45 2508.5,1898C 2470.21,1910.14 2431.21,1912.8 2391.5,1906C 2322.67,1889.5 2277.17,1847.66 2255,1780.5C 2237.14,1706.09 2256.97,1643.92 2314.5,1594C 2345.14,1570.18 2379.8,1556.68 2418.5,1553.5 Z"/></g>
<g><path style="opacity:1" fill="#fefefe" d="M 2071.5,1942.5 C 2137.91,1941.27 2185.75,1970.27 2215,2029.5C 2238.1,2093.25 2225.27,2148.42 2176.5,2195C 2136.89,2227.26 2092.22,2236.92 2042.5,2224C 1983.28,2203.77 1949.11,2162.6 1940,2100.5C 1937.05,2032.81 1965.88,1983.97 2026.5,1954C 2041.1,1948.1 2056.1,1944.27 2071.5,1942.5 Z"/></g>
<g><path style="opacity:1" fill="#fe8d00" d="M 2761.5,1976.5 C 2803.37,1972.82 2840.7,1983.65 2873.5,2009C 2922.77,2054.68 2935.94,2109.18 2913,2172.5C 2887.81,2223.03 2846.98,2251.2 2790.5,2257C 2747.83,2257.33 2705.17,2257.67 2662.5,2258C 2642.26,2263.58 2630.43,2276.74 2627,2297.5C 2626.67,2338.83 2626.33,2380.17 2626,2421.5C 2617.59,2499.54 2578.76,2556.7 2509.5,2593C 2454.79,2618.73 2400.12,2618.73 2345.5,2593C 2277.5,2554.52 2245.33,2496.02 2249,2417.5C 2256.35,2364.19 2281.85,2322.03 2325.5,2291C 2352.72,2271.59 2383.05,2260.26 2416.5,2257C 2470.5,2256.67 2524.5,2256.33 2578.5,2256C 2585.81,2254.9 2592.48,2252.23 2598.5,2248C 2605.36,2242.14 2611.86,2235.98 2618,2229.5C 2621.17,2224.17 2623.5,2218.5 2625,2212.5C 2625.07,2174.48 2625.74,2136.48 2627,2098.5C 2634.84,2051.64 2659.34,2016.47 2700.5,1993C 2719.83,1983.25 2740.16,1977.75 2761.5,1976.5 Z"/></g>
<g><path style="opacity:1" fill="#fe8d00" d="M 1715.5,2251.5 C 1763.58,2249.52 1806.25,2263.35 1843.5,2293C 1878.24,2325.5 1897.08,2365.67 1900,2413.5C 1901.28,2484.78 1871.45,2538.62 1810.5,2575C 1752.49,2603.16 1694.82,2602.16 1637.5,2572C 1590.03,2541.94 1563.2,2498.77 1557,2442.5C 1552.23,2384.12 1571.06,2334.96 1613.5,2295C 1642.92,2269.79 1676.92,2255.29 1715.5,2251.5 Z"/></g>
</svg>
