<?xml version="1.0" encoding="utf-8"?>
<!-- Generator: Adobe Illustrator 22.1.0, SVG Export Plug-In . SVG Version: 6.00 Build 0)  -->
<svg version="1.1" id="Camada_1" xmlns="http://www.w3.org/2000/svg" xmlns:xlink="http://www.w3.org/1999/xlink" x="0px" y="0px" width="80px"
	 viewBox="0 0 1114 375" style="enable-background:new 0 0 1114 375;" xml:space="preserve">
<style type="text/css">
	.st0{fill:#222222;}
	.st1{fill:#BC382A;}
</style>
<g>
	<g>
		<g>
			<path class="st0" d="M209.6,99.8c2.6-7.8,6.4-14.6,12.6-19.9c6.8-5.8,14.8-8.5,23.6-9.1c3.2-0.2,6.4-0.1,9.5,0
				c4.6,0.1,8.8,1.5,13,3.2c11.4,4.8,21,12,29.5,20.8c17.3,18,28.2,39.3,33.8,63.3c2.3,9.6,3.4,19.4,3.4,29.3
				c0,12.7-1.7,25.3-6.1,37.3c-3.1,8.4-6.8,16.7-10.7,24.8c-10,20.8-22.5,40.1-36.8,58.3c-9.7,12.4-19.7,24.5-29.6,36.7
				c-2.7,3.3-5.5,6.7-8.4,9.8c-5.2,5.6-11.3,10.1-18.6,12.7c-11.8,4.3-23.4,3.2-33.9-3.5c-14.4-9.2-21.4-22.5-20.5-39.5
				c0.3-4.8,1.6-9.4,3.7-13.8c5.7-11.6,13.2-22,21.8-31.6c1-1.1,2.1-1.5,3.5-1.6c25.5-1.2,46.6-11.4,63.3-30.4
				c11.8-13.5,19.2-29.2,22.1-46.8c3.4-20.9,0-40.6-11.4-58.6c-7.1-11.2-16.8-20-28.1-26.9c-10.6-6.4-22-10.8-34-13.9
				C210.9,100.2,210.4,100,209.6,99.8z"/>
			<path class="st0" d="M181.9,275.7c-2.6,7.8-6.4,14.6-12.6,19.9c-6.8,5.8-14.8,8.5-23.6,9.1c-3.2,0.2-6.4,0.1-9.5,0
				c-4.6-0.1-8.8-1.5-13-3.2c-11.4-4.8-21-12-29.5-20.8c-17.3-18-28.2-39.3-33.8-63.3c-2.3-9.6-3.4-19.4-3.4-29.3
				c0-12.7,1.7-25.3,6.1-37.3c3.1-8.4,6.8-16.7,10.7-24.8c10-20.8,22.5-40.1,36.8-58.3c9.7-12.4,19.7-24.5,29.6-36.7
				c2.7-3.3,5.5-6.7,8.4-9.8c5.2-5.6,11.3-10.1,18.6-12.7c11.8-4.3,23.4-3.2,33.9,3.5c14.4,9.2,21.4,22.5,20.5,39.5
				c-0.3,4.8-1.6,9.4-3.7,13.8C211.5,77,204,87.4,195.4,97c-1,1.1-2.1,1.5-3.5,1.6c-25.5,1.2-46.6,11.4-63.3,30.4
				c-11.8,13.5-19.2,29.2-22.1,46.8c-3.4,20.9,0,40.6,11.4,58.6c7.1,11.2,16.8,20,28.1,26.9c10.6,6.4,22,10.8,34,13.9
				C180.6,275.3,181.2,275.5,181.9,275.7z"/>
			<g>
				<path class="st1" d="M117.7,188.4c0.2-23.8,9.4-42.8,27.2-57.7c11.1-9.3,24-15.2,38.4-17.3c24.1-3.5,45.8,2.3,64.5,18
					c11.6,9.7,19.7,21.8,23.7,36.4c11.1,41.1-13.3,83.6-55.5,94.5c-43.3,11.3-86.9-15.2-96.4-58.4
					C118.3,198.5,117.8,193.1,117.7,188.4z"/>
			</g>
			<path class="st0" d="M889.7,217.9c0,7.9,0,15.9,0,23.8c0,7.2-3.2,12.6-9.2,16.5c-8.1,5.2-18.9,3-24.4-4.9
				c-2.5-3.5-3.7-7.3-3.7-11.7c0.1-13.7,0.1-27.4,0-41.2c0-3.8-0.4-7.6-1.3-11.3c-2-8.6-7.9-13.6-16.4-15.6
				c-5.4-1.3-10.9-1.2-16.4,0c-7.1,1.5-12.2,5.6-15.6,11.9c-1.1,2.1-1.6,4.4-1.7,6.8c0,3.4,0.1,6.7,0,10.1
				c-0.2,4.1,1.2,7.8,3.3,11.1c3.9,6.1,9.6,9.6,16.9,10.2c1.9,0.2,3.9,0.3,5.9,0.3c7.3,0.2,14.1,5.1,16.8,12.2
				c2.6,6.6,0.8,13.9-4.5,19.1c-4,3.8-8.7,5.7-14.3,5.5c-9.2-0.3-18.2-2-26.6-5.7c-9.1-4-16.6-10.1-22.6-17.9
				c-6.7-8.5-10.2-18.4-12.2-28.8c-1-5-0.8-10.1,0-15.2c0.6-3.7,1.3-7.5,1.9-11.2c0.6-3.4,1.8-6.6,3.2-9.8
				c5.7-13.2,14.8-23.2,27.6-30c6.7-3.5,13.9-5.4,21.3-6.1c8.4-0.8,16.8-0.6,25.1,1.2c13.2,2.9,24.2,9.5,32.8,19.9
				c4.1,5,7.7,10.2,9.8,16.3c2.8,8,4.4,16.3,4.4,24.8C889.7,205.1,889.7,211.5,889.7,217.9z"/>
			<path class="st0" d="M436.9,218c0,8.2,0.1,16.4,0,24.7c-0.1,8.1-5.8,15.4-13.7,17.6c-7.7,2.1-18.1-0.4-22.4-11.8
				c-0.8-2-1.2-4.3-1.2-6.5c-0.1-14.2-0.2-28.4,0-42.7c0.1-6.1,1.1-12.1,2.6-18c4.4-16.3,13.7-29.1,28.6-37.7
				c7.7-4.5,16.1-6.6,24.9-7.3c7.9-0.6,15.8-0.4,23.5,1.3c13.2,2.9,24.2,9.5,32.8,20c3.9,4.7,7.4,9.7,9.5,15.5
				c2.9,8.2,4.7,16.6,4.7,25.4c0,14.6,0,29.2,0,43.7c0,8.2-5.4,15.5-13.3,17.9c-7.6,2.3-18,0.1-22.6-10.9c-1-2.3-1.4-4.8-1.4-7.3
				c0-13.8,0.1-27.6,0-41.4c0-3.8-0.4-7.6-1.3-11.3c-2-8.6-8-13.5-16.4-15.5c-5.6-1.3-11.2-1.2-16.8,0c-7.2,1.5-12.4,5.6-15.8,12
				c-1.2,2.2-1.6,4.6-1.6,7C436.9,201.2,436.9,209.6,436.9,218L436.9,218z"/>
			<path class="st0" d="M677.1,158.1c0-15.7,0-31.4,0-47.2c0-2.3,0.3-4.6,0.9-6.8c3.3-11.2,19.5-17.9,30.2-8.1
				c4,3.7,6.2,8.4,6.2,13.9c0,9.8,0,19.6,0,29.4c0,20.9,0,41.7,0,62.6c0,6.8,2.8,12.3,7.8,16.7c3.6,3.2,7.9,4.7,12.6,5.1
				c2.2,0.2,4.3,0.3,6.5,0.3c9.7,0,21.1,11.1,16.9,24c-1.9,5.7-8.7,12.7-17.4,12.8c-10.5,0.1-20.7-1.7-30.1-6.4
				c-14.2-7.2-24.4-18.2-29.6-33.3c-1.2-3.4-2.5-6.9-3.1-10.5c-0.7-3.8-0.9-7.8-1-11.7C677.1,185.4,677.1,171.7,677.1,158.1z"/>
			<path class="st0" d="M984.2,136c8.5,0,16.9,0,25.4,0c9.1,0.1,17.1,6.7,18.6,15.6c0.7,3.9,0.2,7.8-1.9,11.2
				c-3.8,6.3-9.3,10.1-17,10.1c-14.7,0-29.4,0-44.1,0c-3.3,0-6.6,0.3-9.9,1.1c-6.5,1.7-11.2,5.5-14.4,11.2c-1.4,2.4-1.8,5.1-1.8,7.8
				c0,15.9,0,31.9,0,47.8c0,1.6,0,3.3-0.3,4.9c-1.4,7-5.8,11.6-12.4,14.1c-6.5,2.4-12.6,1.2-17.9-3.2c-3.9-3.3-6.1-7.5-6.6-12.6
				c-0.1-1.1-0.1-2.3-0.1-3.4c0-13.1,0-26.3,0-39.4c0-6.7,0.9-13.3,2.7-19.7c6.3-22.4,20.3-37.4,43.3-43.6c5.4-1.4,11-1.8,16.6-1.9
				C971,135.9,977.6,136,984.2,136L984.2,136z"/>
			<path class="st0" d="M582.9,261c-8.3,0-16.7,0-25,0c-2.5,0-5-0.3-7.5-1.2c-10.5-3.7-16.7-18.6-7.8-29c3.5-4.1,8.1-6.4,13.6-6.7
				c0.9-0.1,1.9,0,2.8,0c14.1,0,28.2,0,42.4,0c3.4,0,6.8-0.2,10.1-1.2c6.4-2.1,11.3-6.1,14-12.2c1.5-3.3,1.6-6.9,2-10.5
				c0.2-1.4,0.1-2.9,0.3-4.3c1-7.6,5.7-12.4,12.7-14.8c6.9-2.4,13.1-0.9,18.4,4.1c4.1,3.9,6.2,8.6,6,14.4
				c-0.6,14.5-4.4,27.9-13.8,39.4c-10,12.1-22.7,19.5-38.6,21.3c-4.2,0.5-8.5,0.6-12.8,0.7C594.2,261.1,588.5,261,582.9,261z"/>
			<path class="st0" d="M625,172.8c-6.4,0-12.7,0.1-19.1,0c-4.7-0.1-9.2,0.6-13.8,1.3c-4.8,0.8-8.6,3.3-11.4,7.2
				c-3.1,4.2-4.5,9.1-4.8,14.2c-0.1,2-0.1,4-0.4,6c-1.3,7.1-5.7,11.8-12.4,14.3c-6.5,2.4-12.8,1.2-18-3.3c-4.1-3.6-6.4-8.2-6.6-13.8
				c-0.1-5.2,0.4-10.4,1.4-15.6c2.2-10.9,7.3-20.4,15.1-28.2c7.1-7.1,15.3-12.9,25.2-15.8c6.8-2,13.7-3.1,20.7-3.1
				c15.1-0.1,30.3,0.1,45.4-0.1c11.4-0.1,22.1,11.9,17.8,24.4c-2.1,6.1-9.6,12.7-17.6,12.5c-0.1,0-0.3,0-0.4,0
				C639,172.8,632,172.8,625,172.8z"/>
			<path class="st0" d="M387.4,198.6c0,14.4,0,28.7,0,43.1c0,4.9-1.4,9.3-4.8,12.9c-7.8,8.3-18.1,7.7-24.5,3.1
				c-5.1-3.7-7.7-8.8-8-15c0-0.6,0-1.1,0-1.7c0-28.4,0-56.9,0-85.3c0-1.8,0.1-3.6,0.5-5.3c1.7-7.3,6.6-11.6,13.6-13.6
				c6.8-1.9,12.7-0.1,17.6,4.8c3.8,3.8,5.7,8.3,5.6,13.7C387.4,169.7,387.4,184.1,387.4,198.6z"/>
			<g>
				<path class="st1" d="M368.9,131.5c-9.3,0.4-18.8-7.3-18.8-18.3c0-10,8.4-18.2,18.7-18.2c10.2,0,18.5,8.1,18.7,17.9
					C387.6,124,378.2,131.9,368.9,131.5z"/>
			</g>
			<g>
				<path class="st1" d="M601.8,216c-9.3,0.4-18.8-7.3-18.8-18.3c0-10,8.4-18.2,18.7-18.2c10.2,0,18.5,8.1,18.7,17.9
					C620.5,208.4,611.1,216.3,601.8,216z"/>
			</g>
			<g>
				<path class="st1" d="M737.7,160.6c-9.3,0.4-18.8-7.3-18.8-18.3c0-10,8.4-18.2,18.7-18.2c10.2,0,18.5,8.1,18.7,17.9
					C756.3,153,746.9,160.9,737.7,160.6z"/>
			</g>
		</g>
	</g>
</g>
<g>
	<g>
		<g>
			<path class="st0" d="M1065.1,87.2h-6.6c-1.2,0-2.1-0.4-2.7-1.4l-5.2-9.1c-0.2-0.4-0.6-0.6-0.7-0.7c-0.4-0.2-0.7-0.2-1.4-0.2h-2
				v11.6h-7.4V56h10.3c2.3,0,4.3,0.2,5.9,0.7c1.6,0.4,2.9,1.1,3.9,2c0.9,0.7,1.8,1.8,2.1,2.9c0.4,1.1,0.7,2.3,0.7,3.7
				c0,0.9-0.2,2-0.4,2.9c-0.2,0.9-0.6,1.8-1.2,2.5c-0.6,0.7-1.1,1.6-2,2.1c-0.7,0.6-1.8,1.1-2.7,1.6c0.4,0.2,0.9,0.6,1.4,0.9
				c0.4,0.4,0.7,0.7,1.1,1.4L1065.1,87.2z M1049.7,70.6c0.9,0,1.8-0.2,2.5-0.4c0.7-0.2,1.4-0.6,1.8-0.9c0.4-0.4,0.7-0.9,0.9-1.6
				c0.2-0.6,0.4-1.1,0.4-2c0-1.4-0.4-2.5-1.4-3.3c-0.9-0.7-2.3-1.1-4.1-1.1h-2.9v9.3C1047,70.6,1049.7,70.6,1049.7,70.6z"/>
		</g>
		<path class="st0" d="M1049.5,110.4c-21.6,0-39-17.6-39-39s17.6-39,39-39s39,17.6,39,39S1071.1,110.4,1049.5,110.4z M1049.5,39.7
			c-17.4,0-31.5,14.2-31.5,31.5s14.2,31.5,31.5,31.5s31.5-14.2,31.5-31.5S1066.9,39.7,1049.5,39.7z"/>
	</g>
</g>
</svg>
