<?xml version="1.0" encoding="utf-8"?>
<!-- Generator: Adobe Illustrator 22.1.0, SVG Export Plug-In . SVG Version: 6.00 Build 0)  -->
<svg version="1.1" id="Camada_1" xmlns="http://www.w3.org/2000/svg" xmlns:xlink="http://www.w3.org/1999/xlink" x="0px" y="0px"
	 viewBox="0 0 1800 1800" style="enable-background:new 0 0 1800 1800;" xml:space="preserve">
<style type="text/css">
	.st0{fill:none;}
	.st1{fill:#69788E;}
</style>
<rect x="891" y="891" class="st0" width="18" height="18"/>
<path class="st1" d="M1395,180H675c-74.7,0-135,60.3-135,135v900c0,74.7,60.3,135,135,135h720c74.7,0,135-60.3,135-135V315
	C1530,240.3,1469.7,180,1395,180z M1395,1215H675V315h720V1215z M270,1080V945h135v135H270z M270,1350v-135h135v135H270z M810,1485
	h135v135H810V1485z M270,675h135v135H270V675z M675,1620H540v-135h135V1620z M405,1620c-74.7,0-135-60.3-135-135h135V1620z M405,540
	H270c0-74.7,60.3-135,135-135V540z M1214.1,1485c0,74.7-60.3,135-135,135l0,0v-135H1214.1L1214.1,1485z"/>
</svg>
