<?xml version="1.0" encoding="utf-8"?>
<!-- Generator: Adobe Illustrator 22.1.0, SVG Export Plug-In . SVG Version: 6.00 Build 0)  -->
<svg version="1.1" id="Camada_1" xmlns="http://www.w3.org/2000/svg" xmlns:xlink="http://www.w3.org/1999/xlink" x="0px" y="0px"
	 viewBox="0 0 500 500" style="enable-background:new 0 0 500 500;" xml:space="preserve">
<style type="text/css">
	.st0{fill:#FFFFFF; }
</style>
<title>Ativo 10</title>
<path class="st0" d="M453.5,287.1c-5.1-5.1-13.3-5.1-18.4,0c0,0,0,0,0,0l-33.2,33.2l-83.6-83.6h-122l-7-39.8H267c7.2,0,13-5.8,13-13
	s-5.8-13-13-13h-82.3l-8.6-48.8c4.1,0.5,8.2,0.3,12.2-0.5c16.5-3.4,28.8-17.2,30.2-34c0.9-11.1-3-22-10.8-29.9
	c-7.8-7.8-18.7-11.9-29.7-11.2c-19.1,1.2-34.3,16.6-35.3,35.8c-0.4,5.9,0.7,11.7,3,17.1l28.8,163.3h133l94.4,94.4l51.6-51.6
	C458.2,300.4,457.9,292.4,453.5,287.1z"/>
<path class="st0" d="M332.7,321.1c0,59.4-48.1,107.5-107.4,107.6s-107.5-48.1-107.6-107.4c0-32.7,14.9-63.7,40.5-84.1l-4.8-27.3
	C91.9,249.5,74.3,331.5,114,393c24.4,37.8,66.3,60.6,111.2,60.6c69.2,0,126.2-53.4,132-121.1L331.8,307
	C332.4,311.7,332.7,316.4,332.7,321.1z"/>
</svg>
